<mxfile host="app.diagrams.net" agent="Mozilla/5.0 (Windows NT 10.0; Win64; x64) AppleWebKit/537.36 (KHTML, like Gecko) Chrome/139.0.0.0 Safari/537.36" version="28.0.9">
  <diagram name="Page-1" id="pQr2hLGst--G7mK-UiMd">
    <mxGraphModel dx="1722" dy="431" grid="1" gridSize="10" guides="1" tooltips="1" connect="1" arrows="1" fold="1" page="1" pageScale="1" pageWidth="850" pageHeight="1100" math="0" shadow="0">
      <root>
        <mxCell id="0" />
        <mxCell id="1" parent="0" />
        <mxCell id="Yy0znUk3v34EOXQgpI8k-3" style="edgeStyle=orthogonalEdgeStyle;rounded=0;orthogonalLoop=1;jettySize=auto;html=1;entryX=0.5;entryY=0;entryDx=0;entryDy=0;" edge="1" parent="1" source="Yy0znUk3v34EOXQgpI8k-1" target="Yy0znUk3v34EOXQgpI8k-2">
          <mxGeometry relative="1" as="geometry" />
        </mxCell>
        <mxCell id="Yy0znUk3v34EOXQgpI8k-1" value="&lt;b&gt;Start&lt;/b&gt;" style="ellipse;whiteSpace=wrap;html=1;" vertex="1" parent="1">
          <mxGeometry x="320" y="40" width="120" height="50" as="geometry" />
        </mxCell>
        <mxCell id="Yy0znUk3v34EOXQgpI8k-8" style="edgeStyle=orthogonalEdgeStyle;rounded=0;orthogonalLoop=1;jettySize=auto;html=1;entryX=0.5;entryY=0;entryDx=0;entryDy=0;" edge="1" parent="1" source="Yy0znUk3v34EOXQgpI8k-2" target="Yy0znUk3v34EOXQgpI8k-7">
          <mxGeometry relative="1" as="geometry" />
        </mxCell>
        <mxCell id="Yy0znUk3v34EOXQgpI8k-2" value="&lt;b&gt;Blue Deployment&lt;/b&gt;" style="rounded=1;whiteSpace=wrap;html=1;fillColor=#dae8fc;gradientColor=#7ea6e0;strokeColor=#6c8ebf;" vertex="1" parent="1">
          <mxGeometry x="320" y="160" width="120" height="60" as="geometry" />
        </mxCell>
        <mxCell id="Yy0znUk3v34EOXQgpI8k-5" style="edgeStyle=orthogonalEdgeStyle;rounded=0;orthogonalLoop=1;jettySize=auto;html=1;entryX=0;entryY=0.5;entryDx=0;entryDy=0;" edge="1" parent="1" source="Yy0znUk3v34EOXQgpI8k-4" target="Yy0znUk3v34EOXQgpI8k-2">
          <mxGeometry relative="1" as="geometry" />
        </mxCell>
        <mxCell id="Yy0znUk3v34EOXQgpI8k-13" style="edgeStyle=orthogonalEdgeStyle;rounded=0;orthogonalLoop=1;jettySize=auto;html=1;entryX=0;entryY=0.5;entryDx=0;entryDy=0;" edge="1" parent="1" source="Yy0znUk3v34EOXQgpI8k-4" target="Yy0znUk3v34EOXQgpI8k-7">
          <mxGeometry relative="1" as="geometry">
            <Array as="points">
              <mxPoint x="160" y="310" />
            </Array>
          </mxGeometry>
        </mxCell>
        <mxCell id="Yy0znUk3v34EOXQgpI8k-18" style="edgeStyle=orthogonalEdgeStyle;rounded=0;orthogonalLoop=1;jettySize=auto;html=1;entryX=0;entryY=0.5;entryDx=0;entryDy=0;" edge="1" parent="1" source="Yy0znUk3v34EOXQgpI8k-4" target="Yy0znUk3v34EOXQgpI8k-15">
          <mxGeometry relative="1" as="geometry">
            <Array as="points">
              <mxPoint x="160" y="440" />
            </Array>
          </mxGeometry>
        </mxCell>
        <mxCell id="Yy0znUk3v34EOXQgpI8k-4" value="&lt;b&gt;Main Service&lt;/b&gt;" style="ellipse;whiteSpace=wrap;html=1;fillColor=#dae8fc;gradientColor=#7ea6e0;strokeColor=#6c8ebf;" vertex="1" parent="1">
          <mxGeometry x="95" y="160" width="120" height="60" as="geometry" />
        </mxCell>
        <mxCell id="Yy0znUk3v34EOXQgpI8k-6" value="&lt;b&gt;first time&lt;/b&gt;" style="text;html=1;align=center;verticalAlign=middle;resizable=0;points=[];autosize=1;strokeColor=none;fillColor=none;" vertex="1" parent="1">
          <mxGeometry x="230" y="150" width="70" height="30" as="geometry" />
        </mxCell>
        <mxCell id="Yy0znUk3v34EOXQgpI8k-7" value="&lt;b&gt;Green&lt;/b&gt;" style="rounded=1;whiteSpace=wrap;html=1;fillColor=#d5e8d4;gradientColor=#97d077;strokeColor=#82b366;" vertex="1" parent="1">
          <mxGeometry x="480" y="280" width="120" height="60" as="geometry" />
        </mxCell>
        <mxCell id="Yy0znUk3v34EOXQgpI8k-10" style="edgeStyle=orthogonalEdgeStyle;rounded=0;orthogonalLoop=1;jettySize=auto;html=1;entryX=1;entryY=0.5;entryDx=0;entryDy=0;" edge="1" parent="1" source="Yy0znUk3v34EOXQgpI8k-9" target="Yy0znUk3v34EOXQgpI8k-7">
          <mxGeometry relative="1" as="geometry" />
        </mxCell>
        <mxCell id="Yy0znUk3v34EOXQgpI8k-9" value="&lt;b&gt;preview-service&lt;/b&gt;" style="ellipse;whiteSpace=wrap;html=1;fillColor=#d5e8d4;gradientColor=#97d077;strokeColor=#82b366;" vertex="1" parent="1">
          <mxGeometry x="670" y="285" width="120" height="50" as="geometry" />
        </mxCell>
        <mxCell id="Yy0znUk3v34EOXQgpI8k-12" style="edgeStyle=orthogonalEdgeStyle;rounded=0;orthogonalLoop=1;jettySize=auto;html=1;entryX=0;entryY=0.5;entryDx=0;entryDy=0;" edge="1" parent="1" source="Yy0znUk3v34EOXQgpI8k-11" target="Yy0znUk3v34EOXQgpI8k-4">
          <mxGeometry relative="1" as="geometry" />
        </mxCell>
        <mxCell id="Yy0znUk3v34EOXQgpI8k-11" value="&lt;b&gt;Ingress&lt;/b&gt;" style="ellipse;whiteSpace=wrap;html=1;aspect=fixed;fillColor=#f8cecc;gradientColor=#ea6b66;strokeColor=#b85450;" vertex="1" parent="1">
          <mxGeometry x="-60" y="150" width="80" height="80" as="geometry" />
        </mxCell>
        <mxCell id="Yy0znUk3v34EOXQgpI8k-14" value="&lt;b&gt;edit the service selector, instead of blue change to green&lt;/b&gt;" style="text;html=1;align=center;verticalAlign=middle;resizable=0;points=[];autosize=1;strokeColor=none;fillColor=none;" vertex="1" parent="1">
          <mxGeometry x="150" y="270" width="350" height="30" as="geometry" />
        </mxCell>
        <mxCell id="Yy0znUk3v34EOXQgpI8k-15" value="&lt;b&gt;Blue Deployment&lt;/b&gt;" style="rounded=1;whiteSpace=wrap;html=1;fillColor=#dae8fc;gradientColor=#7ea6e0;strokeColor=#6c8ebf;" vertex="1" parent="1">
          <mxGeometry x="320" y="410" width="120" height="60" as="geometry" />
        </mxCell>
        <mxCell id="Yy0znUk3v34EOXQgpI8k-17" style="edgeStyle=orthogonalEdgeStyle;rounded=0;orthogonalLoop=1;jettySize=auto;html=1;" edge="1" parent="1" source="Yy0znUk3v34EOXQgpI8k-16" target="Yy0znUk3v34EOXQgpI8k-15">
          <mxGeometry relative="1" as="geometry" />
        </mxCell>
        <mxCell id="Yy0znUk3v34EOXQgpI8k-16" value="&lt;b&gt;preview-service&lt;/b&gt;" style="ellipse;whiteSpace=wrap;html=1;fillColor=#dae8fc;gradientColor=#7ea6e0;strokeColor=#6c8ebf;" vertex="1" parent="1">
          <mxGeometry x="510" y="415" width="120" height="50" as="geometry" />
        </mxCell>
      </root>
    </mxGraphModel>
  </diagram>
</mxfile>
